<?xml version="1.0" standalone="no"?>
<!DOCTYPE svg PUBLIC "-//W3C//DTD SVG 20010904//EN"
 "http://www.w3.org/TR/2001/REC-SVG-20010904/DTD/svg10.dtd">
<svg version="1.0" xmlns="http://www.w3.org/2000/svg"
 width="1536.000000pt" height="1024.000000pt" viewBox="0 0 1536.000000 1024.000000"
 preserveAspectRatio="xMidYMid meet">

<g transform="translate(0.000000,1024.000000) scale(0.100000,-0.100000)"
fill="#000000" stroke="none">
<path d="M7334 9264 c-189 -23 -505 -103 -629 -159 -16 -7 -59 -25 -95 -40
-102 -42 -266 -131 -380 -207 -633 -422 -988 -1069 -990 -1803 -1 -491 158
-961 455 -1340 70 -89 258 -276 350 -346 143 -110 393 -255 496 -288 34 -11
37 -16 44 -59 21 -139 114 -212 319 -248 52 -9 98 -20 103 -23 10 -7 53 -68
53 -75 0 -2 -19 -7 -42 -11 -24 -4 -69 -18 -100 -31 -57 -24 -60 -24 -289 -17
l-230 6 -26 51 c-37 75 -68 113 -118 142 -58 34 -145 43 -199 20 -21 -9 -42
-16 -47 -16 -8 0 -137 177 -157 216 -8 16 -5 35 15 90 35 94 37 218 6 286 -33
72 -70 114 -132 153 -94 57 -235 82 -308 54 -64 -24 -59 -66 22 -175 90 -120
95 -146 33 -184 -77 -46 -151 -12 -188 86 -11 31 -32 71 -46 90 -23 29 -32 34
-68 34 -72 0 -115 -67 -123 -191 -10 -140 27 -255 109 -340 48 -50 115 -83
227 -113 51 -13 102 -31 115 -39 13 -9 50 -55 82 -103 56 -82 58 -87 39 -98
-48 -27 -113 -102 -124 -144 -20 -73 -6 -126 49 -182 39 -40 49 -58 55 -97 10
-65 29 -100 83 -153 26 -25 66 -69 89 -97 52 -62 108 -91 192 -97 35 -3 64 -6
66 -8 1 -2 10 -17 19 -35 17 -34 67 -76 104 -88 15 -4 22 -14 22 -33 1 -64 55
-137 117 -156 15 -5 23 -18 28 -48 8 -44 59 -109 106 -134 16 -8 63 -25 106
-39 108 -35 111 -37 94 -77 -7 -18 -18 -56 -24 -85 -21 -105 47 -205 187 -274
164 -80 286 -75 286 12 0 24 -14 45 -65 98 -83 85 -98 107 -90 130 8 26 64 51
114 51 55 0 104 -45 147 -134 37 -76 46 -86 85 -86 53 0 99 90 99 194 0 62
-24 159 -50 204 l-19 32 143 0 144 0 35 -102 c20 -57 47 -130 61 -163 25 -61
25 -75 0 -75 -20 0 -135 -71 -221 -137 -199 -152 -302 -303 -370 -543 -21 -72
-26 -121 -34 -320 -10 -255 -8 -289 26 -367 48 -108 160 -181 321 -209 49 -8
132 -24 184 -35 186 -37 248 -43 440 -43 208 0 369 16 615 60 152 27 188 36
375 93 143 44 275 71 348 71 65 0 117 -19 205 -76 137 -89 243 -121 365 -111
118 10 178 41 266 136 11 12 28 21 39 21 11 0 45 12 76 26 68 30 107 79 117
142 21 139 -84 488 -209 690 -68 113 -129 174 -191 195 -70 24 -229 22 -325
-3 -105 -28 -109 -27 -68 24 20 24 59 81 87 126 27 46 52 85 54 88 3 2 31 -12
63 -31 181 -105 422 -156 617 -128 44 6 120 28 170 47 396 158 564 490 485
959 -27 159 -31 319 -10 378 7 21 27 54 44 73 66 76 130 83 244 28 102 -49
164 -54 236 -21 48 22 57 31 72 71 33 85 3 184 -81 269 -170 173 -524 144
-713 -59 -71 -76 -104 -130 -139 -227 -22 -63 -26 -88 -26 -202 -1 -108 4
-150 27 -246 58 -247 25 -414 -106 -542 -157 -153 -414 -180 -657 -69 -82 38
-195 114 -195 132 0 8 38 23 105 41 191 50 508 190 581 256 85 77 113 183 89
345 -23 159 -134 689 -236 1128 -59 251 -102 320 -224 356 -112 33 -368 27
-527 -12 -104 -26 -106 -17 -12 66 125 112 263 264 326 360 65 100 170 314
206 420 85 248 112 428 112 725 -1 219 -2 237 -33 381 -49 236 -111 413 -218
627 -85 170 -149 267 -288 436 -114 138 -180 204 -314 312 -400 325 -878 518
-1406 568 -148 15 -516 12 -652 -5z m651 -64 c318 -31 614 -116 895 -256 340
-171 617 -393 823 -661 376 -491 556 -1153 452 -1656 -62 -298 -238 -595 -496
-842 -104 -99 -163 -144 -307 -234 -354 -222 -713 -364 -1337 -528 -267 -70
-615 -109 -860 -97 -141 7 -147 9 -143 42 l3 27 96 -3 c394 -14 1050 114 1559
305 276 103 448 190 665 337 101 68 291 248 367 346 l50 65 -51 -52 c-28 -28
-51 -51 -51 -49 0 1 9 29 21 61 12 33 23 84 26 113 5 48 9 54 38 66 30 13 99
58 173 114 17 13 32 20 32 16 0 -11 62 91 95 156 82 162 113 397 80 610 -23
152 -78 276 -163 372 -103 114 -283 198 -424 198 l-54 0 -33 68 c-109 223
-315 441 -566 599 -71 45 -267 137 -355 166 -189 64 -339 97 -545 122 -213 25
-273 36 -402 71 -191 52 -339 116 -500 216 -72 44 -78 45 -93 18 -17 -31 -13
-218 6 -300 9 -39 14 -73 12 -75 -2 -2 -21 0 -43 6 -22 5 -103 12 -180 15
-113 5 -152 3 -205 -10 -134 -35 -195 -96 -172 -174 14 -46 69 -112 128 -153
l44 -30 -73 -62 c-310 -266 -502 -585 -552 -916 -10 -67 -19 -97 -32 -106
-153 -108 -236 -235 -273 -416 -35 -167 -22 -322 42 -513 90 -268 248 -448
482 -545 41 -17 81 -31 88 -31 7 -1 32 -40 55 -89 65 -137 156 -218 332 -297
203 -91 383 -120 686 -111 300 9 586 58 985 167 292 81 368 108 565 205 399
196 608 384 675 604 15 53 17 55 63 67 l47 12 0 -27 c0 -66 -45 -184 -92 -243
-51 -65 -194 -185 -322 -269 -627 -416 -1883 -703 -2447 -559 -530 136 -1032
552 -1274 1055 -99 206 -154 381 -192 610 -24 149 -24 515 0 658 58 332 190
639 389 904 289 385 730 680 1235 827 131 38 292 71 413 85 105 12 495 12 615
1z m-729 -478 c123 -62 470 -169 589 -182 68 -7 58 -8 -65 -5 -223 5 -394 44
-586 134 l-84 40 0 -34 c0 -19 7 -68 16 -108 16 -73 17 -74 70 -106 84 -50 64
-46 -38 7 -82 44 -93 53 -105 88 -16 46 -43 217 -43 273 l0 40 103 -64 c57
-34 121 -72 143 -83z m-71 -69 c11 -7 14 -13 8 -13 -7 0 -15 5 -18 10 -3 6
-15 10 -26 10 -10 0 -19 4 -19 10 0 11 26 3 55 -17z m-48 -45 c-3 -8 -6 -5 -6
6 -1 11 2 17 5 13 3 -3 4 -12 1 -19z m-149 -129 c110 -22 257 -70 253 -83 -2
-5 3 -13 11 -18 12 -8 -60 -2 -91 8 -130 41 -400 69 -534 55 -86 -8 -125 -24
-101 -39 6 -4 15 -22 19 -40 4 -18 18 -40 31 -48 26 -18 33 -37 9 -28 -8 4
-15 3 -15 0 0 -18 103 -49 185 -56 l90 -7 -70 -1 c-119 -3 -207 29 -276 100
-42 44 -58 82 -42 107 16 27 95 60 168 70 92 12 247 4 363 -20z m963 3 c-7 -2
-18 1 -23 6 -8 8 -4 9 13 5 13 -4 18 -8 10 -11z m-1304 -58 c-3 -3 -12 -4 -19
-1 -8 3 -5 6 6 6 11 1 17 -2 13 -5z m141 -1 c-10 -2 -28 -2 -40 0 -13 2 -5 4
17 4 22 1 32 -1 23 -4z m349 -49 c-3 -3 -12 -4 -19 -1 -8 3 -5 6 6 6 11 1 17
-2 13 -5z m1158 -15 c22 -10 29 -16 15 -13 -28 7 -80 33 -65 33 6 0 28 -9 50
-20z m158 -65 c26 -14 47 -26 47 -29 0 -4 -131 54 -140 63 -11 10 47 -12 93
-34z m-1435 -30 c-11 -10 -112 -34 -143 -33 -19 0 -6 6 34 14 35 8 69 16 75
19 16 7 40 7 34 0z m1558 -45 c8 -13 -21 1 -51 26 -19 15 -18 15 12 1 17 -9
35 -21 39 -27z m-1588 -7 c-47 -26 -65 -48 -30 -35 15 6 15 5 4 -10 -8 -8 -19
-14 -26 -11 -7 3 -31 -18 -55 -45 -23 -28 -62 -64 -86 -81 -47 -33 -57 -50
-27 -50 23 0 169 62 219 92 59 38 63 40 63 33 0 -21 -238 -135 -283 -135 -46
0 -25 83 37 144 22 23 77 60 121 83 89 46 137 58 63 15z m1702 -69 c0 -6 -71
37 -90 55 -8 7 9 0 38 -18 28 -17 52 -34 52 -37z m-1982 1 l31 -6 -27 -41
c-22 -33 -27 -52 -27 -103 0 -34 -3 -57 -7 -51 -16 25 -7 95 17 141 l25 47
-46 -38 c-25 -21 -51 -37 -58 -35 -19 3 -105 -77 -190 -177 -68 -81 -155 -201
-125 -173 21 19 76 15 100 -9 19 -19 21 -30 17 -90 -9 -119 -102 -249 -178
-249 -26 0 -27 -3 -44 -97 -10 -54 -20 -111 -23 -128 -6 -30 -5 -29 49 21 125
118 249 143 434 89 104 -30 272 -129 399 -234 27 -22 52 -41 56 -41 3 0 20 26
37 58 75 139 213 298 337 387 292 208 632 223 915 41 97 -63 181 -146 245
-242 108 -162 144 -275 152 -475 6 -139 -6 -226 -43 -315 l-13 -31 60 -39 c67
-43 117 -104 144 -177 16 -42 21 -48 44 -45 19 2 32 14 49 48 25 50 31 36 6
-16 -11 -22 -26 -36 -43 -40 -14 -3 -32 -7 -38 -10 -7 -2 -13 3 -13 11 0 8
-11 39 -25 70 -28 64 -103 142 -162 169 l-41 18 18 43 c72 167 61 446 -24 639
-163 369 -558 576 -918 483 -259 -68 -476 -243 -629 -509 -28 -49 -54 -88 -57
-88 -4 0 -30 20 -57 44 -129 112 -309 215 -433 247 -158 40 -270 17 -373 -79
-71 -65 -102 -127 -129 -252 -37 -176 -24 -350 38 -530 47 -135 45 -127 33
-109 -15 23 -67 172 -90 259 -11 41 -29 100 -40 130 l-20 55 3 -76 c3 -51 14
-104 35 -164 36 -105 35 -126 -3 -28 -107 284 -129 598 -61 869 30 119 148
364 226 467 77 102 224 247 314 310 80 57 97 62 153 51z m239 -25 c-2 -13 -19
-28 -45 -39 -23 -11 -42 -17 -42 -15 0 3 16 23 36 45 37 41 56 44 51 9z m1918
-130 c141 -147 246 -318 269 -439 6 -32 6 -33 -8 -17 -8 11 -12 26 -9 35 4 9
2 13 -4 9 -6 -4 -19 3 -29 16 l-19 22 23 -19 c30 -26 28 -9 -8 75 -46 108
-131 222 -264 354 -67 66 -103 106 -81 88 22 -17 81 -73 130 -124z m-1805 88
c0 -2 -14 -16 -32 -33 l-31 -29 22 33 c18 26 41 42 41 29z m-70 -71 c0 -2 -8
-10 -17 -17 -16 -13 -17 -12 -4 4 13 16 21 21 21 13z m-74 -91 c-11 -8 -25
-15 -30 -15 -6 1 0 7 14 15 32 19 40 18 16 0z m-135 -43 c-24 -2 -47 0 -52 5
-4 4 15 6 44 3 l52 -5 -44 -3z m2269 -249 c0 -8 -38 17 -51 33 -9 11 -2 9 19
-6 17 -13 32 -25 32 -27z m-2510 -3 c32 -32 24 -62 -22 -86 -41 -21 -58 -12
-58 31 0 34 27 75 50 75 6 0 19 -9 30 -20z m2420 -24 c0 -12 -5 -7 -19 24 -11
24 -11 24 3 6 9 -11 16 -24 16 -30z m-2523 -33 c-3 -10 -5 -2 -5 17 0 19 2 27
5 18 2 -10 2 -26 0 -35z m3238 3 l40 -18 -63 -14 c-209 -44 -332 -253 -332
-562 0 -379 169 -676 398 -699 l55 -6 -28 -23 c-15 -12 -53 -30 -83 -39 -143
-46 -315 37 -427 205 -55 83 -86 156 -121 287 -23 85 -26 119 -27 258 -1 123
3 175 17 225 59 219 139 330 281 389 42 18 67 20 150 18 69 -2 112 -9 140 -21z
m-1531 -66 c276 -70 510 -319 572 -608 40 -191 26 -348 -50 -522 -5 -11 6 -20
45 -33 66 -24 132 -85 166 -155 32 -66 43 -193 23 -285 -26 -125 -121 -263
-251 -363 -261 -201 -831 -356 -1314 -358 -200 -1 -286 10 -425 55 -99 33
-278 121 -347 173 -152 112 -209 272 -168 474 l18 88 -47 77 c-127 210 -197
393 -216 566 -30 273 56 493 225 572 70 34 115 36 217 13 127 -29 267 -105
430 -236 49 -38 95 -68 105 -66 9 2 48 56 87 121 77 127 145 211 242 297 198
173 465 247 688 190z m1656 -6 c70 -21 154 -103 198 -194 77 -158 102 -396 62
-590 -47 -230 -147 -379 -268 -400 -153 -26 -306 98 -387 314 -44 118 -58 200
-59 351 -1 199 37 320 132 426 88 98 198 130 322 93z m-741 -200 c-6 -16 -20
-67 -30 -114 -15 -64 -18 -73 -15 -35 5 52 44 190 52 182 2 -2 -1 -17 -7 -33z
m-52 -241 c-3 -10 -5 -4 -5 12 0 17 2 24 5 18 2 -7 2 -21 0 -30z m-3089 -357
c-21 -248 14 -466 111 -670 56 -119 89 -170 163 -251 45 -50 85 -121 73 -133
-2 -2 -40 12 -85 32 -174 75 -299 201 -395 400 -63 131 -92 230 -104 356 -22
241 48 450 195 580 l39 34 8 -105 c5 -66 3 -155 -5 -243z m3059 92 c-2 -18 -4
-4 -4 32 0 36 2 50 4 33 2 -18 2 -48 0 -65z m10 -95 c-3 -10 -5 -2 -5 17 0 19
2 27 5 18 2 -10 2 -26 0 -35z m-3012 -103 c28 -118 108 -313 192 -465 l77
-140 4 -119 4 -119 -45 51 c-86 97 -150 208 -201 352 -55 152 -82 331 -70 470
8 93 11 90 39 -30z m3022 58 c-3 -8 -6 -5 -6 6 -1 11 2 17 5 13 3 -3 4 -12 1
-19z m33 -123 c0 -5 -5 -3 -10 5 -5 8 -10 20 -10 25 0 6 5 3 10 -5 5 -8 10
-19 10 -25z m18 -40 c-3 -3 -9 2 -12 12 -6 14 -5 15 5 6 7 -7 10 -15 7 -18z
m29 -77 c-3 -8 -6 -5 -6 6 -1 11 2 17 5 13 3 -3 4 -12 1 -19z m-38 -92 c-2 -2
-13 8 -23 22 l-19 27 24 -22 c12 -12 21 -24 18 -27z m1033 -77 c-37 -97 -125
-284 -160 -337 l-15 -23 -23 22 c-13 13 -24 26 -24 31 0 4 29 47 64 94 73 99
145 218 172 286 36 91 25 30 -14 -73z m-3913 36 c0 -5 -6 1 -14 15 -8 14 -14
30 -14 35 0 6 6 -1 14 -15 8 -14 14 -29 14 -35z m70 -72 c12 -24 19 -43 16
-43 -5 0 -45 75 -45 86 0 11 6 2 29 -43z m-24 -13 c14 -27 23 -50 20 -50 -2 0
-16 23 -30 50 -14 28 -23 50 -20 50 2 0 16 -22 30 -50z m85 -100 c6 -11 8 -20
6 -20 -3 0 -10 9 -16 20 -6 11 -8 20 -6 20 3 0 10 -9 16 -20z m2677 -22 c-3
-7 -5 -2 -5 12 0 14 2 19 5 13 2 -7 2 -19 0 -25z m-2632 -50 c16 -24 22 -38
14 -31 -15 12 -53 73 -46 73 2 0 17 -19 32 -42z m-36 -18 c0 -10 -3 -8 -9 5
-12 27 -12 43 0 25 5 -8 9 -22 9 -30z m12 -163 c-8 -8 -11 10 -10 69 l2 79 10
-68 c7 -49 6 -72 -2 -80z m50 74 c-9 -27 -17 -45 -19 -40 -2 5 2 26 9 46 7 21
12 42 11 46 -1 5 1 6 6 3 5 -3 2 -28 -7 -55z m3509 -62 c0 -54 -241 -309 -380
-401 -112 -75 -118 -77 -125 -41 -3 15 -10 44 -15 62 -5 19 -8 36 -7 36 1 1
28 16 59 34 95 53 227 162 328 268 l95 101 23 -21 c12 -11 22 -28 22 -38z
m-3533 -46 c-3 -10 -5 -2 -5 17 0 19 2 27 5 18 2 -10 2 -26 0 -35z m-20 -90
c-2 -16 -4 -5 -4 22 0 28 2 40 4 28 2 -13 2 -35 0 -50z m-726 -149 c219 -65
287 -200 215 -430 -34 -108 -37 -98 80 -255 63 -84 75 -105 65 -118 -24 -33
-44 -88 -49 -133 -4 -43 -6 -46 -26 -39 -11 5 -49 12 -83 16 l-62 7 -32 56
c-17 32 -56 96 -87 144 -50 77 -61 88 -92 93 -113 19 -190 41 -248 71 -59 31
-64 32 -43 10 32 -35 123 -72 221 -92 47 -9 91 -21 97 -26 16 -13 102 -143
110 -166 3 -9 -16 14 -43 52 -27 38 -60 78 -74 88 -14 10 -66 27 -117 37 -50
11 -109 29 -130 40 -63 32 -117 99 -144 177 -42 125 -27 300 27 321 24 9 45
-19 78 -104 30 -75 33 -79 85 -105 63 -32 110 -35 166 -9 57 26 95 73 95 119
0 41 -25 84 -102 173 -26 31 -48 61 -48 67 0 25 66 28 141 6z m787 -49 c-3 -3
-9 2 -12 12 -6 14 -5 15 5 6 7 -7 10 -15 7 -18z m98 -85 c39 -44 41 -48 10
-20 -21 19 -47 49 -58 65 -25 35 -18 29 48 -45z m29 -60 c10 -11 16 -20 13
-20 -3 0 -13 9 -23 20 -10 11 -16 20 -13 20 3 0 13 -9 23 -20z m46 -7 c13 -16
12 -17 -3 -4 -10 7 -18 15 -18 17 0 8 8 3 21 -13z m19 -39 c0 -2 -9 0 -20 6
-11 6 -20 13 -20 16 0 2 9 0 20 -6 11 -6 20 -13 20 -16z m3575 2 c95 -41 112
-78 179 -381 25 -115 55 -248 66 -295 87 -373 160 -763 160 -856 0 -104 -27
-152 -117 -210 -43 -28 -325 -164 -340 -164 -2 0 3 10 11 22 28 40 20 125 -29
300 -41 149 -171 684 -231 953 -77 344 -109 410 -225 450 -63 23 -200 21 -276
-3 -35 -11 -63 -16 -63 -11 0 20 28 75 46 90 28 25 144 64 274 92 154 35 161
35 345 33 126 -2 169 -6 200 -20z m-3420 -74 c-3 -3 -11 0 -18 7 -9 10 -8 11
6 5 10 -3 15 -9 12 -12z m95 -27 c19 -7 28 -13 20 -13 -8 0 -31 6 -50 13 -19
7 -28 13 -20 13 8 0 31 -6 50 -13z m2424 -70 c-25 -58 -29 -109 -15 -182 5
-24 7 -43 5 -43 -2 0 -12 20 -23 45 -11 25 -46 72 -77 105 -49 52 -54 60 -38
66 11 4 51 20 89 35 39 15 73 28 77 28 4 1 -4 -24 -18 -54z m-385 15 c128 -17
223 -75 286 -175 35 -56 78 -157 96 -225 14 -54 14 -226 -1 -280 -5 -22 -15
-58 -21 -81 -19 -74 -18 -36 2 46 28 119 26 262 -6 362 -13 43 -31 87 -39 98
-14 18 -14 17 -5 -15 6 -19 15 -53 20 -75 5 -22 13 -58 19 -80 5 -22 9 -76 9
-120 -1 -69 -2 -74 -9 -35 -4 24 -5 51 -3 60 2 8 -10 58 -28 110 -33 102 -45
127 -65 148 -7 7 -28 33 -45 57 -18 25 -37 45 -42 45 -5 0 -50 16 -98 35 -73
29 -102 35 -166 36 -53 0 -72 3 -58 9 40 17 -12 10 -108 -15 -126 -32 -228
-93 -310 -184 -59 -66 -36 -61 40 8 121 110 282 168 435 157 81 -6 182 -36
208 -61 9 -10 -8 -6 -43 11 -119 54 -281 54 -415 -1 -95 -38 -138 -69 -229
-160 -45 -46 -77 -72 -71 -59 6 13 15 24 20 24 5 0 7 4 4 9 -9 14 43 101 88
150 117 124 274 198 446 209 8 1 48 -3 89 -8z m776 -61 c45 -21 68 -46 99
-107 15 -29 123 -465 201 -807 39 -176 113 -470 135 -544 26 -83 26 -176 1
-217 -24 -40 -114 -72 -221 -80 -103 -8 -125 2 -157 73 l-26 57 44 39 c24 22
60 50 79 62 49 31 100 85 107 113 10 40 -4 127 -27 173 -40 79 -89 120 -161
133 -49 9 -88 -7 -126 -52 -17 -20 -34 -34 -37 -31 -4 3 -27 71 -52 150 -110
349 -222 821 -227 956 l-2 58 65 22 c91 31 241 32 305 2z m-1240 -19 c-3 -5
-12 -10 -18 -10 -7 0 -6 4 3 10 19 12 23 12 15 0z m-1696 -31 c22 -8 30 -16
27 -26 -3 -8 -6 -24 -6 -35 0 -17 -2 -18 -15 -4 -8 8 -24 18 -35 21 -13 4 -20
15 -20 31 0 27 4 28 49 13z m194 -46 c75 -12 97 -20 97 -32 -1 -40 -14 -44
-117 -38 -107 7 -123 16 -123 70 0 26 3 29 23 23 12 -3 66 -13 120 -23z m1254
-20 c-3 -10 -5 -4 -5 12 0 17 2 24 5 18 2 -7 2 -21 0 -30z m758 -28 c230 -112
289 -403 146 -720 -91 -200 -296 -434 -488 -558 l-42 -27 5 29 c17 82 -57 261
-160 388 -112 139 -253 241 -391 284 -41 12 -75 26 -75 29 0 4 114 119 253
256 225 222 260 253 327 287 107 53 169 67 276 64 76 -2 100 -7 149 -32z
m-2211 -30 l27 -40 -30 35 c-17 19 -31 39 -31 44 0 5 1 7 3 5 2 -2 15 -22 31
-44z m2417 -84 c16 -25 29 -50 29 -55 0 -6 -14 12 -31 39 -17 28 -52 72 -78
100 l-46 50 49 -45 c27 -25 61 -65 77 -89z m-958 76 c-8 -5 -17 -6 -20 -3 -4
3 -1 6 5 6 7 0 12 10 13 23 0 21 1 21 8 2 6 -14 4 -23 -6 -28z m-1173 -7 c0
-5 -5 -10 -11 -10 -5 0 -7 5 -4 10 3 6 8 10 11 10 2 0 4 -4 4 -10z m103 -91
c18 -1 122 -5 232 -9 l200 -6 -156 -2 c-86 -1 -191 1 -234 5 -76 6 -78 7 -91
39 -8 18 -14 41 -13 51 1 10 8 -3 16 -29 13 -44 17 -48 46 -49z m994 75 c-3
-3 -12 -4 -19 -1 -8 3 -5 6 6 6 11 1 17 -2 13 -5z m-40 -10 c-3 -3 -12 -4 -19
-1 -8 3 -5 6 6 6 11 1 17 -2 13 -5z m-62 -14 c-16 -4 -41 -8 -55 -8 -22 0 -22
1 5 8 17 4 41 8 55 8 22 0 22 -1 -5 -8z m-988 -22 c-3 -8 -6 -5 -6 6 -1 11 2
17 5 13 3 -3 4 -12 1 -19z m1178 -73 c-17 -53 -36 -100 -41 -105 -7 -7 -27 -1
-60 17 -48 27 -53 28 -199 27 -107 0 -201 -8 -329 -27 -98 -15 -189 -27 -201
-27 -16 0 -30 11 -43 34 l-20 34 136 -1 c113 0 169 5 317 32 265 47 463 93
470 110 1 1 -13 -42 -30 -94z m-282 78 c-7 -2 -19 -2 -25 0 -7 3 -2 5 12 5 14
0 19 -2 13 -5z m-996 -9 c-3 -3 -12 -4 -19 -1 -8 3 -5 6 6 6 11 1 17 -2 13 -5z
m946 -1 c-7 -2 -19 -2 -25 0 -7 3 -2 5 12 5 14 0 19 -2 13 -5z m-906 -9 c-3
-3 -12 -4 -19 -1 -8 3 -5 6 6 6 11 1 17 -2 13 -5z m846 -1 c-7 -2 -21 -2 -30
0 -10 3 -4 5 12 5 17 0 24 -2 18 -5z m-780 -10 c-7 -2 -21 -2 -30 0 -10 3 -4
5 12 5 17 0 24 -2 18 -5z m710 0 c-7 -2 -19 -2 -25 0 -7 3 -2 5 12 5 14 0 19
-2 13 -5z m-80 -10 c-13 -2 -35 -2 -50 0 -16 2 -5 4 22 4 28 0 40 -2 28 -4z
m-1377 -69 c49 -39 89 -112 119 -215 13 -46 49 -137 80 -203 31 -65 55 -119
53 -120 -2 -1 -16 -6 -33 -12 -16 -7 -38 -15 -47 -19 -13 -5 -20 0 -28 19 -14
37 -98 183 -136 236 -17 25 -35 60 -39 78 l-7 34 -32 -30 c-39 -38 -87 -62
-121 -62 -51 0 -105 83 -105 162 0 41 35 113 67 135 42 30 52 33 125 30 57 -2
72 -7 104 -33z m935 -14 c34 0 42 -5 59 -32 29 -48 25 -59 -5 -15 -24 34 -29
37 -76 37 -31 0 -48 -4 -44 -10 3 -5 14 -10 24 -10 10 0 29 -8 42 -19 13 -10
33 -21 44 -24 12 -3 7 -5 -15 -6 -45 -1 -76 16 -109 58 l-26 34 34 -6 c18 -4
51 -7 72 -7z m719 -97 c6 -21 13 -65 16 -98 l6 -60 -47 -55 c-41 -48 -55 -57
-110 -72 -34 -10 -88 -29 -120 -42 -52 -24 -150 -55 -217 -70 -21 -5 -28 -3
-28 8 0 21 -39 46 -72 46 -37 0 -72 -35 -64 -65 5 -20 1 -24 -40 -34 -26 -7
-47 -11 -49 -9 -6 9 -35 242 -35 286 0 117 10 121 480 181 80 11 173 20 207
20 l62 1 11 -37z m140 21 c22 -9 40 -19 40 -23 0 -4 -31 -37 -68 -74 l-69 -68
-7 63 c-3 35 -9 75 -12 91 -6 26 -5 27 35 27 22 0 59 -7 81 -16z m1137 -51
c-3 -10 -5 -2 -5 17 0 19 2 27 5 18 2 -10 2 -26 0 -35z m-2040 4 c1 -2 -6 -21
-17 -42 -24 -47 -25 -96 -5 -229 21 -142 20 -160 -10 -174 -35 -16 -40 -15
-24 6 12 15 12 16 -2 4 -9 -6 -47 -25 -84 -40 l-69 -28 -87 38 c-49 20 -109
43 -134 49 -44 11 -45 12 -45 54 0 85 -45 221 -97 293 l-17 24 140 -7 c76 -4
156 -13 176 -20 21 -7 35 -9 32 -4 -3 5 0 9 6 9 6 0 9 4 5 10 -16 26 114 72
184 65 25 -3 46 -6 48 -8z m-1295 -58 c63 -14 108 -54 108 -96 0 -51 -94 -127
-195 -159 -26 -8 -32 -13 -18 -13 46 -2 133 41 189 92 l56 51 36 -20 c24 -13
41 -31 51 -57 21 -56 2 -109 -60 -170 -27 -26 -49 -49 -49 -52 0 -18 32 3 78
49 l53 55 29 -41 c34 -46 36 -72 15 -141 -14 -47 -80 -165 -100 -179 -17 -13
-84 -9 -118 6 -44 19 -212 193 -232 238 -20 50 -19 94 3 108 11 7 12 10 2 7
-21 -6 -99 52 -117 87 -10 20 -14 47 -11 83 4 44 11 60 38 88 36 37 116 74
162 74 15 1 51 -4 80 -10z m673 -5 c44 -44 92 -179 97 -274 l3 -55 -42 -3
c-29 -2 -43 1 -43 9 0 11 -67 187 -106 277 -23 54 -19 62 30 62 28 0 51 -6 61
-16z m2925 -481 l53 -173 -40 -38 c-21 -21 -48 -58 -60 -83 -53 -113 -122
-169 -272 -220 -176 -61 -437 -66 -675 -13 -26 6 -21 10 70 58 55 28 122 68
149 89 68 51 216 198 276 273 26 34 73 80 104 104 71 54 138 143 186 246 36
75 46 109 65 219 6 37 10 27 49 -125 23 -91 66 -243 95 -337z m-263 420 c-3
-10 -5 -4 -5 12 0 17 2 24 5 18 2 -7 2 -21 0 -30z m2282 13 c29 -8 71 -27 93
-41 67 -45 127 -160 108 -208 -8 -21 -9 -21 -7 4 0 14 -5 39 -12 57 -12 28
-21 36 -41 34 -3 0 -17 9 -30 20 l-25 20 28 -16 c34 -20 35 -7 2 17 -40 29
-105 48 -185 54 -155 11 -278 -35 -379 -142 -99 -107 -139 -196 -156 -350 -3
-27 -8 -66 -11 -87 -3 -20 1 -59 9 -90 91 -318 6 -584 -229 -719 -72 -41 -80
-36 -10 6 79 47 114 78 163 144 52 69 80 141 94 245 13 96 7 158 -33 336 -25
114 -29 149 -25 225 18 293 229 504 507 505 47 0 109 -7 139 -14z m-5226 -104
c47 -65 145 -247 136 -256 -3 -3 -22 -12 -42 -21 -37 -15 -37 -15 -49 12 -17
40 -143 226 -174 257 l-26 26 43 19 c24 11 50 20 57 20 6 1 31 -25 55 -57z
m2924 -24 c-3 -8 -6 -5 -6 6 -1 11 2 17 5 13 3 -3 4 -12 1 -19z m19 -75 c-33
-61 -127 -186 -134 -179 -2 3 16 31 41 62 26 31 61 82 79 115 18 32 34 56 36
54 2 -2 -8 -25 -22 -52z m-2991 -71 c19 -34 35 -67 35 -72 0 -23 -21 -7 -46
35 -14 25 -32 48 -39 53 -6 4 -15 27 -18 52 l-6 45 20 -25 c10 -14 35 -53 54
-88z m1836 73 c31 -12 83 -41 116 -63 73 -49 220 -203 251 -263 13 -24 17 -35
8 -25 -8 10 -17 24 -20 30 -3 8 -7 8 -13 0 -4 -6 -34 -23 -65 -39 -32 -16 -58
-33 -58 -37 0 -5 11 -31 25 -58 39 -77 29 -73 -13 5 -46 87 -140 214 -208 282
-28 28 -87 75 -130 103 -82 54 -105 77 -82 85 52 17 113 10 189 -20z m1110 -2
c-12 -20 -14 -14 -5 12 4 9 9 14 11 11 3 -2 0 -13 -6 -23z m2309 6 c0 -4 19
-10 43 -14 23 -4 37 -9 30 -12 -6 -2 -29 0 -50 6 -21 6 -60 11 -88 12 -27 1
-61 4 -75 8 -15 4 9 7 57 7 46 -1 83 -4 83 -7z m-3617 -30 c156 -80 294 -225
386 -406 17 -34 31 -66 31 -70 -1 -4 -12 13 -26 40 -13 26 -27 47 -30 47 -3 0
-17 -6 -32 -14 -15 -8 -67 -28 -116 -44 -78 -27 -88 -29 -93 -14 -66 190 -226
422 -291 422 -39 0 -31 15 20 36 68 29 99 29 151 3z m-478 -19 c3 -5 1 -10 -6
-10 -6 0 -18 -8 -25 -17 -11 -15 -13 -16 -14 -2 0 28 32 49 45 29z m265 -40
c128 -36 304 -340 341 -590 11 -80 6 -165 -12 -175 -5 -4 -73 -17 -152 -31
-164 -27 -440 -35 -469 -11 -9 7 -18 35 -22 68 -9 82 -67 305 -125 484 -28 85
-51 156 -51 159 0 9 66 26 215 56 83 16 164 34 180 39 40 12 54 13 95 1z
m3481 -72 c-55 -100 -65 -230 -32 -429 19 -115 25 -198 20 -314 -1 -33 -5 8
-10 90 -4 83 -12 171 -18 196 -45 195 -29 374 45 487 27 42 24 22 -5 -30z
m-4348 1 c45 -16 100 -40 122 -52 39 -22 40 -25 47 -87 3 -36 20 -119 37 -185
28 -113 81 -349 81 -363 0 -4 -62 -7 -137 -7 -129 0 -142 -2 -196 -27 -32 -15
-76 -42 -98 -59 -39 -30 -40 -31 -92 -18 -63 15 -90 31 -105 65 -28 61 -1 135
77 208 29 26 51 50 49 52 -8 8 -105 -67 -136 -105 l-33 -41 -37 15 c-20 9 -45
26 -54 38 -55 70 24 217 150 281 39 20 42 29 5 15 -56 -21 -112 -60 -156 -109
l-45 -50 -41 16 c-55 22 -85 71 -79 129 10 84 91 161 235 224 40 17 84 43 99
56 15 14 43 27 63 30 20 4 43 8 51 10 33 8 115 -7 193 -36z m4854 35 c-3 -3
-12 -4 -19 -1 -8 3 -5 6 6 6 11 1 17 -2 13 -5z m-5384 -117 c-10 -10 -25 -23
-34 -27 -15 -8 -15 -5 -1 36 14 43 15 44 33 28 18 -16 18 -18 2 -37z m886 -29
c13 -40 33 -107 46 -148 34 -107 65 -222 64 -240 0 -8 -16 34 -35 93 -37 115
-44 120 -73 49 -8 -18 -26 -46 -41 -62 -21 -22 -26 -36 -22 -57 2 -15 2 -26
-1 -23 -9 8 -85 320 -87 355 -4 67 -2 73 43 88 77 28 82 26 106 -55z m2647
-71 c68 -39 98 -84 114 -166 11 -61 -1 -109 -37 -144 l-28 -26 0 67 c-1 49 -7
78 -23 110 -25 46 -91 100 -134 109 -33 7 -35 16 -8 43 23 23 83 27 116 7z
m-1311 -68 c9 -17 15 -33 13 -35 -3 -2 -12 12 -21 31 -21 43 -13 47 8 4z
m1230 -22 c69 -39 111 -126 99 -203 -4 -27 -18 -51 -45 -79 l-39 -40 0 35 c0
46 -39 127 -79 165 -28 26 -40 30 -91 30 l-58 0 16 29 c10 15 28 37 42 47 14
10 30 23 35 28 18 17 79 11 120 -12z m1198 0 c3 -8 1 -20 -4 -28 -6 -10 -9 -7
-9 14 0 29 5 35 13 14z m-2387 -213 c-5 -13 -176 -106 -176 -95 1 15 17 28 41
34 14 4 42 18 63 32 20 14 41 25 45 25 12 0 20 36 23 95 2 46 2 44 5 -14 2
-35 2 -70 -1 -77z m-217 86 c0 -10 -3 -8 -9 5 -12 27 -12 43 0 25 5 -8 9 -22
9 -30z m1323 -17 c33 -30 60 -93 65 -152 l5 -56 -63 -69 -64 -70 -6 53 c-8 63
-61 148 -118 189 l-39 28 34 47 c21 29 44 49 61 53 16 3 33 7 38 8 18 5 67
-13 87 -31z m-1605 5 c-3 -8 -6 -5 -6 6 -1 11 2 17 5 13 3 -3 4 -12 1 -19z
m21 -83 c0 -16 -2 -15 -8 5 -4 14 -8 34 -8 45 0 16 2 15 8 -5 4 -14 8 -34 8
-45z m273 -57 c-14 -45 -22 -50 -166 -98 l-112 -38 4 47 c7 66 11 73 12 19 l1
-47 48 16 c187 60 210 77 213 160 2 34 2 35 6 8 3 -16 0 -47 -6 -67z m-1224
20 c-3 -8 -6 -5 -6 6 -1 11 2 17 5 13 3 -3 4 -12 1 -19z m170 -10 c-3 -8 -6
-5 -6 6 -1 11 2 17 5 13 3 -3 4 -12 1 -19z m2189 -5 c36 -23 72 -87 84 -151
17 -82 5 -98 -112 -157 l-93 -47 -6 69 c-6 71 -29 127 -74 181 -14 16 -25 32
-25 35 0 2 15 11 33 18 17 7 56 28 86 45 54 32 66 33 107 7z m-2169 -85 c-3
-8 -6 -5 -6 6 -1 11 2 17 5 13 3 -3 4 -12 1 -19z m1205 -10 c26 -8 50 -16 53
-20 3 -3 -4 -23 -17 -44 -19 -33 -23 -52 -22 -120 l1 -82 -85 29 c-46 16 -91
34 -98 40 -19 15 -18 112 1 148 21 41 65 72 95 67 14 -3 46 -11 72 -18z m739
0 c51 -61 72 -112 77 -185 5 -85 8 -82 -122 -108 -124 -24 -126 -24 -126 33 0
46 -34 200 -47 211 -3 3 -3 -7 1 -24 16 -75 29 -225 20 -233 -5 -4 -64 -6
-130 -4 l-122 3 -6 102 c-4 56 -3 116 2 132 l8 30 125 7 c103 6 215 27 297 57
2 0 12 -9 23 -21z m-948 -65 c-8 -27 -12 -61 -10 -76 4 -32 7 -33 -104 21
l-76 37 91 31 c122 42 117 42 99 -13z m460 27 c27 0 28 -2 21 -32 -4 -18 -6
-79 -5 -135 l1 -103 -47 6 c-27 4 -77 12 -113 18 l-65 11 -3 40 c-6 63 7 138
29 175 l20 33 67 -7 c37 -3 80 -6 95 -6z m952 -83 c11 -17 39 -44 63 -60 24
-16 48 -41 54 -56 18 -45 15 -258 -5 -329 -38 -139 -135 -288 -248 -379 -35
-29 -67 -53 -71 -53 -4 0 -1 15 7 34 8 19 19 65 25 103 35 226 -110 437 -340
496 l-54 14 55 7 c75 10 222 61 294 101 33 19 89 61 125 94 36 33 67 60 70 60
3 0 14 -14 25 -32z m-2515 2 c130 -27 219 -205 176 -352 -9 -31 -20 -59 -26
-62 -5 -3 -16 16 -24 43 -31 104 -71 158 -138 187 -47 19 -138 19 -183 1 -39
-16 -75 -68 -75 -106 0 -37 51 -118 109 -175 49 -48 63 -75 40 -75 -7 0 -55
13 -109 30 -156 48 -225 111 -224 206 2 96 63 170 162 195 23 6 42 14 42 18 0
3 -35 23 -78 44 -63 32 -81 37 -102 29 -54 -21 -54 -36 0 -73 27 -18 47 -35
45 -37 -2 -3 -31 14 -63 35 l-60 40 41 26 c22 15 57 29 76 33 20 3 41 8 46 10
19 8 291 -5 345 -17z m750 -19 c0 -5 -2 -10 -4 -10 -3 0 -8 5 -11 10 -3 6 -1
10 4 10 6 0 11 -4 11 -10z m3187 -62 c-3 -7 -5 -2 -5 12 0 14 2 19 5 13 2 -7
2 -19 0 -25z m-3247 -146 c0 -11 -56 -52 -72 -52 -8 0 -71 160 -65 166 2 2 14
-21 26 -52 21 -49 25 -53 36 -37 13 17 14 17 20 1 7 -17 35 -26 35 -10 0 4 -7
32 -15 62 -8 30 -14 60 -14 65 1 13 48 -126 49 -143z m25 59 c10 -32 20 -49
25 -41 4 6 10 11 14 11 20 -3 25 1 29 22 4 21 4 21 6 1 1 -24 -12 -38 -46 -48
-19 -6 -23 0 -39 46 -9 29 -19 60 -22 68 -3 10 -2 12 5 5 6 -5 18 -34 28 -64z
m503 9 c50 -16 105 -31 123 -31 19 -1 -9 -5 -61 -10 -195 -17 -419 -66 -475
-105 -59 -39 -165 -59 -165 -31 0 40 145 110 326 157 63 16 123 34 132 40 23
13 20 14 120 -20z m762 -102 c135 -37 229 -96 273 -171 80 -135 89 -322 21
-436 -14 -24 -83 -71 -146 -99 -4 -2 1 17 12 41 26 59 43 188 35 257 -18 144
-152 311 -275 344 -14 4 1 -8 33 -25 110 -61 193 -176 216 -301 20 -110 -24
-284 -82 -323 -29 -19 -98 -31 -267 -45 -69 -5 -152 -13 -185 -16 l-60 -6 -28
89 c-62 199 -253 413 -462 518 -78 39 -208 85 -239 85 -18 0 -18 2 -6 14 20
20 209 72 307 85 131 18 158 19 473 14 267 -4 314 -7 380 -25z m1373 -125 c-7
-2 -19 -2 -25 0 -7 3 -2 5 12 5 14 0 19 -2 13 -5z m-2398 -38 c178 -68 374
-230 464 -383 24 -40 42 -75 39 -77 -2 -2 -15 16 -28 40 -14 25 -28 45 -33 45
-5 0 -55 -21 -112 -47 -94 -43 -122 -65 -96 -75 14 -5 88 -125 95 -154 7 -27
19 -29 81 -9 11 3 4 -3 -15 -14 -19 -11 -40 -20 -45 -21 -6 0 -25 30 -42 68
-68 144 -272 332 -470 431 -108 54 -209 81 -302 81 l-75 0 65 45 c35 25 91 59
124 75 58 29 64 30 170 26 90 -3 123 -9 180 -31z m2182 29 c-3 -3 -12 -4 -19
-1 -8 3 -5 6 6 6 11 1 17 -2 13 -5z m151 -1 c-10 -2 -28 -2 -40 0 -13 2 -5 4
17 4 22 1 32 -1 23 -4z m218 -39 c-5 -24 -3 -25 22 -19 44 11 21 -3 -49 -29
-35 -13 -91 -26 -124 -29 -33 -3 -50 -3 -38 -1 18 4 21 10 16 39 -6 37 1 42
92 55 86 13 86 13 81 -16z m-2881 -161 c146 -36 307 -135 450 -278 93 -92 160
-188 171 -244 6 -28 3 -32 -27 -45 -19 -7 -81 -22 -139 -31 -134 -22 -312 -73
-419 -120 -92 -41 -86 -41 -236 0 -77 20 -126 27 -210 28 -100 2 -115 0 -162
-24 l-53 -26 6 86 c12 163 74 334 172 478 42 61 131 151 172 173 54 29 165 30
275 3z m2308 -277 c54 -31 103 -98 169 -231 70 -140 146 -365 135 -398 -2 -7
-7 4 -11 23 -26 123 -154 420 -226 525 -34 50 -88 90 -135 101 -28 7 -29 6
-15 -11 14 -17 14 -17 -6 -7 -11 6 -26 17 -32 25 -20 24 69 4 121 -27z m-123
-24 c52 -53 132 -177 193 -299 70 -137 169 -417 182 -514 6 -41 4 -48 -16 -63
-13 -9 -33 -16 -45 -16 -18 0 -23 10 -36 79 -43 217 -270 648 -423 803 -26 26
-44 52 -40 57 3 6 34 11 68 11 l61 0 56 -58z m-176 -26 c156 -159 412 -662
405 -795 l-2 -26 -4 25 c-7 40 -44 149 -53 155 -4 3 -11 20 -14 39 -4 19 -14
40 -23 47 -15 12 -16 12 -9 -6 7 -20 -27 15 -87 87 -25 30 -23 25 14 -57 47
-103 99 -235 99 -250 -1 -5 -16 26 -34 70 -82 201 -274 548 -379 687 -34 44
-37 53 -24 63 33 24 59 15 111 -39z m-121 -44 c113 -154 290 -474 362 -654 27
-68 39 -113 42 -169 7 -99 -9 -133 -70 -150 -84 -23 -231 8 -320 67 l-40 26 6
65 c7 72 41 154 87 213 32 41 118 90 158 90 14 0 21 4 17 11 -9 14 -58 3 -116
-26 -90 -46 -163 -156 -175 -267 -4 -32 -8 -58 -9 -58 -1 0 -28 12 -59 26 -32
14 -84 28 -117 31 -32 3 -59 8 -59 10 0 2 8 18 17 36 25 46 24 225 -1 332 -24
107 -90 271 -126 316 l-29 36 87 33 c47 18 127 52 176 76 49 24 93 44 97 44 4
0 36 -39 72 -88z m372 58 c10 -11 16 -20 13 -20 -3 0 -13 9 -23 20 -10 11 -16
20 -13 20 3 0 13 -9 23 -20z m-1405 -25 c0 -5 -5 -3 -10 5 -5 8 -10 20 -10 25
0 6 5 3 10 -5 5 -8 10 -19 10 -25z m19 -82 c1 -30 -2 -33 -51 -48 -68 -20 -74
-12 -7 10 l51 17 -5 47 c-4 30 -3 39 3 26 5 -11 9 -34 9 -52z m1466 -13 c9
-16 13 -30 11 -30 -3 0 -12 14 -21 30 -9 17 -13 30 -11 30 3 0 12 -13 21 -30z
m-881 -82 c50 -89 106 -264 111 -345 2 -38 2 -60 -1 -50 -4 12 -16 17 -39 17
-24 0 -35 5 -38 18 -4 13 -5 11 -6 -5 -2 -36 -21 -27 -21 10 0 62 -54 250 -96
334 l-41 83 48 0 48 0 35 -62z m-171 34 c26 -29 74 -142 99 -233 19 -71 22
-109 22 -239 0 -158 -9 -208 -46 -237 -14 -12 -199 -73 -293 -97 -186 -47
-432 -83 -638 -93 l-138 -6 11 27 c15 39 13 72 -11 164 l-20 81 35 80 c65 147
207 351 288 413 116 88 349 147 624 156 38 2 55 -3 67 -16z m1092 -22 c9 -16
13 -30 11 -30 -3 0 -12 14 -21 30 -9 17 -13 30 -11 30 3 0 12 -13 21 -30z m44
-90 c11 -24 11 -24 -3 -6 -9 11 -16 24 -16 30 0 12 5 7 19 -24z m-1948 -68
c-23 -15 -87 -70 -144 -122 -56 -52 -93 -83 -82 -69 47 55 50 60 29 53 -10 -4
-25 -14 -31 -22 -18 -21 -101 -33 -118 -16 -7 7 -15 10 -19 7 -3 -3 -14 0 -23
8 -17 13 -17 13 -4 -6 8 -11 29 -36 45 -55 32 -36 19 -27 -49 35 -16 14 -42
34 -57 43 -16 9 -28 19 -28 23 0 7 153 67 240 95 47 15 229 51 269 53 8 1 -5
-12 -28 -27z m1998 -37 c0 -5 -6 1 -14 15 -8 14 -14 30 -14 35 0 6 6 -1 14
-15 8 -14 14 -29 14 -35z m-2061 -69 c-23 -30 -44 -53 -46 -51 -6 6 68 105 79
105 5 0 -10 -25 -33 -54z m2116 -56 c20 -52 36 -99 36 -105 -1 -9 -89 203 -90
215 -1 19 23 -31 54 -110z m-2813 85 c182 -32 292 -86 394 -196 70 -76 109
-144 136 -237 21 -75 25 -182 7 -200 -30 -30 -276 -5 -423 43 -175 57 -319
165 -378 282 -30 58 -67 184 -67 226 0 82 138 116 331 82z m498 -172 c-13 -16
-25 -30 -27 -32 -1 -3 -8 1 -15 9 -8 9 -9 11 0 6 7 -3 20 4 30 18 10 14 22 26
27 26 5 0 -1 -12 -15 -27z m61 13 c0 -2 -8 -10 -17 -17 -16 -13 -17 -12 -4 4
13 16 21 21 21 13z m24 -58 c-15 -29 -32 -67 -38 -85 l-11 -32 -17 42 c-17 40
-17 41 0 19 l17 -22 33 65 c17 36 34 65 37 65 3 0 -7 -23 -21 -52z m-71 -2
c-10 -13 -20 -22 -22 -20 -4 4 29 44 36 44 2 0 -4 -11 -14 -24z m-847 -38 c34
-106 125 -224 211 -275 24 -14 42 -27 40 -30 -6 -6 -105 35 -154 63 -35 20
-49 39 -79 100 -24 50 -38 95 -41 135 -3 32 -3 59 0 59 3 0 13 -24 23 -52z
m2101 20 c-3 -8 -6 -5 -6 6 -1 11 2 17 5 13 3 -3 4 -12 1 -19z m100 0 c-3 -8
-6 -5 -6 6 -1 11 2 17 5 13 3 -3 4 -12 1 -19z m1040 0 c-3 -8 -6 -5 -6 6 -1
11 2 17 5 13 3 -3 4 -12 1 -19z m-1050 -95 c-3 -10 -5 -4 -5 12 0 17 2 24 5
18 2 -7 2 -21 0 -30z m-112 -62 c-6 -27 -3 -30 22 -34 24 -3 23 -4 -9 -6 l-36
-1 11 35 c13 42 21 46 12 6z m81 -19 c-17 -16 -18 -16 -5 5 7 12 15 20 18 17
3 -2 -3 -12 -13 -22z"/>
<path d="M9866 7847 c3 -10 9 -15 12 -12 3 3 0 11 -7 18 -10 9 -11 8 -5 -6z"/>
<path d="M10047 7339 c4 -13 8 -18 11 -10 2 7 -1 18 -6 23 -8 8 -9 4 -5 -13z"/>
<path d="M5412 7235 c0 -16 2 -22 5 -12 2 9 2 23 0 30 -3 6 -5 -1 -5 -18z"/>
<path d="M5403 7020 c0 -36 2 -50 4 -32 2 17 2 47 0 65 -2 17 -4 3 -4 -33z"/>
<path d="M5412 6850 c0 -19 2 -27 5 -17 2 9 2 25 0 35 -3 9 -5 1 -5 -18z"/>
<path d="M5422 6760 c0 -14 2 -19 5 -12 2 6 2 18 0 25 -3 6 -5 1 -5 -13z"/>
<path d="M5431 6704 c0 -11 3 -14 6 -6 3 7 2 16 -1 19 -3 4 -6 -2 -5 -13z"/>
<path d="M5441 6644 c0 -11 3 -14 6 -6 3 7 2 16 -1 19 -3 4 -6 -2 -5 -13z"/>
<path d="M5451 6594 c0 -11 3 -14 6 -6 3 7 2 16 -1 19 -3 4 -6 -2 -5 -13z"/>
<path d="M5461 6554 c0 -11 3 -14 6 -6 3 7 2 16 -1 19 -3 4 -6 -2 -5 -13z"/>
<path d="M5471 6504 c0 -11 3 -14 6 -6 3 7 2 16 -1 19 -3 4 -6 -2 -5 -13z"/>
<path d="M5571 6225 c0 -5 6 -21 14 -35 8 -14 14 -20 14 -15 0 6 -6 21 -14 35
-8 14 -14 21 -14 15z"/>
<path d="M9829 6153 c-29 -35 -41 -53 -36 -53 2 0 17 16 31 35 28 36 31 49 5
18z"/>
<path d="M5610 6134 c0 -6 7 -19 16 -30 14 -18 14 -18 3 6 -14 31 -19 36 -19
24z"/>
<path d="M9769 6073 c-13 -16 -12 -17 4 -4 9 7 17 15 17 17 0 8 -8 3 -21 -13z"/>
<path d="M5653 6055 c9 -16 23 -39 32 -50 9 -11 7 -2 -6 20 -27 49 -47 72 -26
30z"/>
<path d="M5750 5896 c0 -2 8 -10 18 -17 15 -13 16 -12 3 4 -13 16 -21 21 -21
13z"/>
<path d="M5865 5750 c10 -11 20 -20 23 -20 3 0 -3 9 -13 20 -10 11 -20 20 -23
20 -3 0 3 -9 13 -20z"/>
<path d="M6000 5605 c30 -30 57 -55 59 -55 3 0 -19 25 -49 55 -30 30 -57 55
-59 55 -3 0 19 -25 49 -55z"/>
<path d="M6090 5525 c13 -14 26 -25 28 -25 3 0 -5 11 -18 25 -13 14 -26 25
-28 25 -3 0 5 -11 18 -25z"/>
<path d="M6145 5480 c10 -11 20 -20 23 -20 3 0 -3 9 -13 20 -10 11 -20 20 -23
20 -3 0 3 -9 13 -20z"/>
<path d="M6180 5456 c0 -2 8 -10 18 -17 15 -13 16 -12 3 4 -13 16 -21 21 -21
13z"/>
<path d="M6280 5387 c0 -5 104 -73 148 -96 45 -24 20 -2 -35 31 -32 19 -70 42
-85 52 -16 10 -28 16 -28 13z"/>
<path d="M7932 6805 c-154 -79 -189 -322 -73 -504 54 -84 161 -139 247 -126
51 7 123 52 157 97 86 112 79 319 -14 455 -49 70 -96 96 -187 100 -68 4 -83 1
-130 -22z m64 -119 c59 -50 19 -150 -60 -150 -52 0 -76 27 -76 84 0 84 74 120
136 66z"/>
<path d="M6590 6379 c-67 -20 -110 -81 -110 -158 0 -68 21 -91 51 -55 20 24
85 54 132 60 57 8 135 -9 220 -48 37 -17 70 -28 74 -25 12 13 -17 84 -52 125
-69 80 -221 129 -315 101z"/>
<path d="M7380 6109 c-42 -42 -38 -75 8 -72 37 1 112 46 112 66 0 47 -75 50
-120 6z"/>
<path d="M7102 6064 c-27 -19 -29 -50 -3 -64 22 -11 80 -13 105 -4 24 9 19 40
-10 63 -32 25 -61 27 -92 5z"/>
<path d="M8614 6038 l-29 -33 33 29 c30 28 37 36 29 36 -2 0 -16 -15 -33 -32z"/>
<path d="M7738 6034 c-13 -13 -9 -24 10 -24 23 0 62 -28 62 -45 0 -43 -190
-182 -325 -236 -106 -43 -230 -51 -318 -21 -65 22 -85 12 -45 -23 29 -25 130
-48 189 -44 37 3 41 0 73 -46 80 -119 180 -175 289 -160 184 26 310 189 278
361 -16 83 -62 176 -104 208 -36 27 -96 44 -109 30z m140 -195 c25 -8 33 -18
38 -46 10 -55 -3 -129 -33 -185 -54 -99 -194 -159 -288 -124 -76 29 -92 73
-55 154 23 50 60 87 155 152 91 61 123 70 183 49z"/>
<path d="M8530 5985 c-14 -8 -20 -14 -14 -15 5 0 19 7 30 15 24 18 16 19 -16
0z"/>
<path d="M8338 5943 c7 -3 16 -2 19 1 4 3 -2 6 -13 5 -11 0 -14 -3 -6 -6z"/>
<path d="M6494 5888 l-29 -33 33 29 c30 28 37 36 29 36 -2 0 -16 -15 -33 -32z"/>
<path d="M9705 7334 c-133 -69 -191 -303 -134 -545 17 -74 29 -101 72 -161 65
-89 118 -122 190 -115 85 8 161 91 192 212 20 78 19 237 -1 328 -30 131 -100
249 -168 281 -43 20 -112 21 -151 0z m129 -38 c90 -37 165 -222 166 -408 1
-173 -71 -312 -167 -325 -51 -7 -91 14 -137 70 -76 93 -113 227 -103 376 10
143 58 249 129 284 41 20 69 21 112 3z"/>
<path d="M9900 6730 c-9 -6 -10 -10 -3 -10 6 0 15 5 18 10 8 12 4 12 -15 0z"/>
<path d="M9950 6722 c0 -7 -9 -12 -19 -12 -11 0 -23 -5 -26 -11 -4 -6 -14 -8
-22 -5 -8 3 -11 1 -8 -4 6 -9 -14 -14 -41 -11 -6 1 -24 -6 -40 -14 -16 -8 -23
-15 -16 -15 8 0 6 -6 -5 -18 -14 -15 -23 -17 -38 -9 -18 9 -19 9 -6 -7 43 -52
116 -56 165 -11 29 26 72 112 62 122 -3 4 -6 1 -6 -5z"/>
<path d="M5764 4917 c6 -18 112 -185 129 -202 17 -18 -13 34 -75 128 -33 51
-57 84 -54 74z"/>
<path d="M5770 4835 c0 -5 5 -17 10 -25 5 -8 10 -10 10 -5 0 6 -5 17 -10 25
-5 8 -10 11 -10 5z"/>
<path d="M5821 4674 c0 -16 4 -38 9 -49 6 -13 7 -5 3 25 -7 53 -13 66 -12 24z"/>
<path d="M10022 5084 c-77 -20 -111 -41 -118 -71 -7 -28 40 -237 69 -305 14
-33 20 -38 50 -38 36 0 201 52 223 71 21 17 17 78 -12 200 -33 136 -49 159
-112 158 -26 0 -71 -7 -100 -15z m152 -56 c23 -63 56 -198 56 -229 0 -22 -8
-30 -47 -47 -27 -11 -74 -26 -107 -33 -53 -12 -60 -11 -71 5 -18 24 -79 272
-70 286 12 20 135 58 192 59 28 1 33 -3 47 -41z"/>
<path d="M10167 4605 c-70 -14 -97 -37 -97 -83 0 -54 40 -209 59 -234 18 -21
21 -21 88 -9 90 16 133 41 133 78 0 34 -42 200 -58 229 -15 27 -54 33 -125 19z
m101 -38 c11 -13 52 -174 52 -203 0 -31 -147 -67 -168 -42 -15 19 -54 176 -50
206 2 19 12 29 38 38 47 17 115 17 128 1z"/>
<path d="M8868 5093 c7 -3 16 -2 19 1 4 3 -2 6 -13 5 -11 0 -14 -3 -6 -6z"/>
<path d="M8150 4840 c-9 -6 -10 -10 -3 -10 6 0 15 5 18 10 8 12 4 12 -15 0z"/>
<path d="M8010 4810 c-20 -6 -21 -8 -5 -8 11 0 34 4 50 8 27 7 27 8 5 8 -14 0
-36 -4 -50 -8z"/>
<path d="M7938 4793 c6 -2 18 -2 25 0 6 3 1 5 -13 5 -14 0 -19 -2 -12 -5z"/>
<path d="M7845 4780 c-16 -4 -65 -13 -108 -20 -42 -7 -75 -15 -73 -18 6 -5
213 28 241 39 18 7 17 8 -5 7 -14 0 -38 -3 -55 -8z"/>
<path d="M6420 4320 c6 -11 13 -20 16 -20 2 0 0 9 -6 20 -6 11 -13 20 -16 20
-2 0 0 -9 6 -20z"/>
<path d="M7617 4492 c-22 -24 -22 -84 1 -110 9 -11 31 -23 49 -27 64 -13 109
74 67 133 -20 29 -93 31 -117 4z m84 -12 c32 -18 19 -100 -16 -100 -43 0 -73
79 -37 99 22 13 29 13 53 1z"/>
<path d="M7314 4483 c-35 -7 -56 -37 -52 -75 l3 -33 83 2 c94 3 119 13 128 50
12 45 -6 58 -77 59 -35 1 -74 0 -85 -3z m136 -32 c0 -14 -18 -23 -61 -31 -49
-9 -41 5 8 16 l38 8 -40 6 -40 7 48 2 c26 0 47 -3 47 -8z"/>
<path d="M8960 3825 c-24 -25 -42 -45 -39 -45 3 0 25 20 49 45 24 25 42 45 39
45 -3 0 -25 -20 -49 -45z"/>
<path d="M8889 3763 c-13 -16 -12 -17 4 -4 16 13 21 21 13 21 -2 0 -10 -8 -17
-17z"/>
<path d="M7080 3900 c0 -5 5 -10 11 -10 5 0 7 5 4 10 -3 6 -8 10 -11 10 -2 0
-4 -4 -4 -10z"/>
<path d="M9820 2248 c0 -7 45 -77 57 -88 10 -9 -25 54 -41 75 -8 11 -16 17
-16 13z"/>
<path d="M9443 2260 c-39 -24 -53 -48 -53 -95 0 -64 50 -129 122 -159 50 -21
86 -20 125 4 93 56 78 197 -27 250 -51 26 -125 26 -167 0z m146 -28 c78 -39
102 -131 48 -178 -35 -30 -77 -31 -131 -4 -53 26 -81 65 -81 113 0 75 84 111
164 69z"/>
<path d="M4831 6644 c0 -11 3 -14 6 -6 3 7 2 16 -1 19 -3 4 -6 -2 -5 -13z"/>
<path d="M4871 6633 c-2 -31 42 -122 72 -149 l32 -29 -28 31 c-16 18 -39 61
-52 95 -13 35 -24 59 -24 52z"/>
<path d="M4826 6589 c-8 -42 0 -50 9 -9 4 17 5 34 2 36 -2 3 -7 -10 -11 -27z"/>
<path d="M4756 6451 c-16 -16 -41 -35 -57 -42 -17 -6 -28 -14 -25 -16 8 -8 60
25 90 56 17 17 27 31 25 31 -3 0 -18 -13 -33 -29z"/>
<path d="M4980 6446 c0 -2 8 -10 18 -17 15 -13 16 -12 3 4 -13 16 -21 21 -21
13z"/>
<path d="M5040 6405 c14 -8 32 -14 40 -14 8 0 0 6 -19 14 -42 19 -54 19 -21 0z"/>
<path d="M5004 6324 c-18 -14 -18 -14 6 -3 31 14 36 19 24 19 -6 0 -19 -7 -30
-16z"/>
<path d="M4954 6288 l-19 -23 23 19 c21 18 27 26 19 26 -2 0 -12 -10 -23 -22z"/>
<path d="M4801 6235 c0 -5 6 -21 14 -35 8 -14 14 -20 14 -15 0 6 -6 21 -14 35
-8 14 -14 21 -14 15z"/>
<path d="M4832 6160 c0 -8 4 -26 8 -40 6 -20 8 -21 8 -5 0 11 -3 29 -8 40 -5
12 -8 14 -8 5z"/>
<path d="M4886 6139 c-8 -42 0 -50 9 -9 4 17 5 34 2 36 -2 3 -7 -10 -11 -27z"/>
<path d="M5176 6051 c-9 -16 -24 -35 -33 -40 -10 -6 -13 -11 -6 -11 14 0 68
68 60 76 -3 3 -13 -8 -21 -25z"/>
<path d="M5245 5950 c-10 -11 -16 -22 -14 -24 2 -2 12 7 22 20 22 29 17 32 -8
4z"/>
</g>
</svg>
